HIERARCHY
ROOT hip
{
  OFFSET 40.4922 85.2575 -94.5678
  CHANNELS 6 Xposition Yposition Zposition Zrotation Xrotation Yrotation
  JOINT abdomen
  {
    OFFSET 0 20.6881 -0.73152
    CHANNELS 3 Zrotation Xrotation Yrotation
    JOINT chest
    {
      OFFSET 0 11.7043 -0.48768
      CHANNELS 3 Zrotation Xrotation Yrotation
      JOINT neck
      {
        OFFSET 0 22.1894 -2.19456
        CHANNELS 3 Zrotation Xrotation Yrotation
        JOINT head
        {
          OFFSET -0.24384 7.07133 1.2192
          CHANNELS 3 Zrotation Xrotation Yrotation
          JOINT leftEye
          {
            OFFSET 4.14528 8.04674 8.04672
            CHANNELS 3 Zrotation Xrotation Yrotation
            End Site
            {
              OFFSET 1 0 0
            }
          }
          JOINT rightEye
          {
            OFFSET -3.6576 8.04674 8.04672
            CHANNELS 3 Zrotation Xrotation Yrotation
            End Site
            {
              OFFSET 1 0 0
            }
          }
        }
      }
      JOINT rCollar
      {
        OFFSET -2.68224 19.2634 -4.8768
        CHANNELS 3 Zrotation Xrotation Yrotation
        JOINT rShldr
        {
          OFFSET -8.77824 -1.95073 1.46304
          CHANNELS 3 Zrotation Xrotation Yrotation
          JOINT rForeArm
          {
            OFFSET -28.1742 -1.7115 0.48768
            CHANNELS 3 Zrotation Xrotation Yrotation
            JOINT rHand
            {
              OFFSET -22.5879 0.773209 7.07136
              CHANNELS 3 Zrotation Xrotation Yrotation
              JOINT rThumb1
              {
                OFFSET -1.2192 -0.487915 3.41376
                CHANNELS 3 Zrotation Xrotation Yrotation
                JOINT rThumb2
                {
                  OFFSET -3.37035 -0.52449 3.41376
                  CHANNELS 3 Zrotation Xrotation Yrotation
                  End Site
                  {
                    OFFSET -1.78271 -1.18214 1.43049
                  }
                }
              }
              JOINT rIndex1
              {
                OFFSET -7.75947 0.938293 5.60832
                CHANNELS 3 Zrotation Xrotation Yrotation
                JOINT rIndex2
                {
                  OFFSET -2.54057 -0.884171 1.56538
                  CHANNELS 3 Zrotation Xrotation Yrotation
                  End Site
                  {
                    OFFSET -1.62519 -0.234802 1.16502
                  }
                }
              }
              JOINT rMid1
              {
                OFFSET -8.24714 1.18213 3.41376
                CHANNELS 3 Zrotation Xrotation Yrotation
                JOINT rMid2
                {
                  OFFSET -3.10165 -0.590103 1.0647
                  CHANNELS 3 Zrotation Xrotation Yrotation
                  End Site
                  {
                    OFFSET -2.48547 -0.328903 0.83742
                  }
                }
              }
              JOINT rRing1
              {
                OFFSET -8.82822 0.546677 1.51678
                CHANNELS 3 Zrotation Xrotation Yrotation
                JOINT rRing2
                {
                  OFFSET -2.60934 -0.819778 -0.0198488
                  CHANNELS 3 Zrotation Xrotation Yrotation
                  End Site
                  {
                    OFFSET -2.33842 -0.294052 0.168128
                  }
                }
              }
              JOINT rPinky1
              {
                OFFSET -8.27202 -0.0477905 -0.4584
                CHANNELS 3 Zrotation Xrotation Yrotation
                JOINT rPinky2
                {
                  OFFSET -1.82734 -0.647385 -0.700984
                  CHANNELS 3 Zrotation Xrotation Yrotation
                  End Site
                  {
                    OFFSET -1.69225 -0.51767 -0.607171
                  }
                }
              }
            }
          }
        }
      }
      JOINT lCollar
      {
        OFFSET 2.68224 19.2634 -4.8768
        CHANNELS 3 Zrotation Xrotation Yrotation
        JOINT lShldr
        {
          OFFSET 8.77824 -1.95073 1.46304
          CHANNELS 3 Zrotation Xrotation Yrotation
          JOINT lForeArm
          {
            OFFSET 28.1742 -1.7115 0.48768
            CHANNELS 3 Zrotation Xrotation Yrotation
            JOINT lHand
            {
              OFFSET 22.5879 0.773209 7.07136
              CHANNELS 3 Zrotation Xrotation Yrotation
              JOINT lThumb1
              {
                OFFSET 1.2192 -0.487915 3.41376
                CHANNELS 3 Zrotation Xrotation Yrotation
                JOINT lThumb2
                {
                  OFFSET 3.37035 -0.52449 3.41376
                  CHANNELS 3 Zrotation Xrotation Yrotation
                  End Site
                  {
                    OFFSET 1.78271 -1.18214 1.43049
                  }
                }
              }
              JOINT lIndex1
              {
                OFFSET 7.75947 0.938293 5.60832
                CHANNELS 3 Zrotation Xrotation Yrotation
                JOINT lIndex2
                {
                  OFFSET 2.54057 -0.884171 1.56538
                  CHANNELS 3 Zrotation Xrotation Yrotation
                  End Site
                  {
                    OFFSET 1.62519 -0.234802 1.16502
                  }
                }
              }
              JOINT lMid1
              {
                OFFSET 8.24714 1.18213 3.41376
                CHANNELS 3 Zrotation Xrotation Yrotation
                JOINT lMid2
                {
                  OFFSET 3.10165 -0.590103 1.0647
                  CHANNELS 3 Zrotation Xrotation Yrotation
                  End Site
                  {
                    OFFSET 2.48547 -0.328903 0.83742
                  }
                }
              }
              JOINT lRing1
              {
                OFFSET 8.82822 0.546677 1.51678
                CHANNELS 3 Zrotation Xrotation Yrotation
                JOINT lRing2
                {
                  OFFSET 2.60934 -0.819778 -0.0198488
                  CHANNELS 3 Zrotation Xrotation Yrotation
                  End Site
                  {
                    OFFSET 2.33842 -0.294052 0.168128
                  }
                }
              }
              JOINT lPinky1
              {
                OFFSET 8.27202 -0.0477905 -0.4584
                CHANNELS 3 Zrotation Xrotation Yrotation
                JOINT lPinky2
                {
                  OFFSET 1.82734 -0.647385 -0.700984
                  CHANNELS 3 Zrotation Xrotation Yrotation
                  End Site
                  {
                    OFFSET 1.69225 -0.51767 -0.607171
                  }
                }
              }
            }
          }
        }
      }
    }
  }
  JOINT rButtock
  {
    OFFSET -8.77824 4.35084 1.2192
    CHANNELS 3 Zrotation Xrotation Yrotation
    JOINT rThigh
    {
      OFFSET 0 -1.70687 -2.19456
      CHANNELS 3 Zrotation Xrotation Yrotation
      JOINT rShin
      {
        OFFSET 0 -36.8199 0.73152
        CHANNELS 3 Zrotation Xrotation Yrotation
        JOINT rFoot
        {
          OFFSET 0.73152 -45.1104 -5.12064
          CHANNELS 3 Zrotation Xrotation Yrotation
          End Site
          {
            OFFSET -1.1221 -3.69964 12.103
          }
        }
      }
    }
  }
  JOINT lButtock
  {
    OFFSET 8.77824 4.35084 1.2192
    CHANNELS 3 Zrotation Xrotation Yrotation
    JOINT lThigh
    {
      OFFSET 0 -1.70687 -2.19456
      CHANNELS 3 Zrotation Xrotation Yrotation
      JOINT lShin
      {
        OFFSET 0 -36.8199 0.73152
        CHANNELS 3 Zrotation Xrotation Yrotation
        JOINT lFoot
        {
          OFFSET -0.73152 -45.1104 -5.12064
          CHANNELS 3 Zrotation Xrotation Yrotation
          End Site
          {
            OFFSET 1.1221 -3.69964 12.103
          }
        }
      }
    }
  }
}
MOTION
Frames:	9
Frame Time:	0.00833333
48.5798 23.1626 66.6566 116.932 -76.6447 116.062 -9.6667 35.6822 1.79443 1.8074 4.98839 -0.590779 -2.14615 15.7604 -1.68721 3.22975 -26.0763 -2.6046 -0 0 0 -0 0 0 3.25071e-013 7.55559e-015 2.83532e-013 65.4889 12.8602 23.9545 -28.3238 -32.8865 71.7133 -0.105592 -8.86993 -1.25781 -2.85483e-010 -1.07183e-009 -1.36414e-009 -4.78944e-010 -1.84371e-009 -2.36328e-009 -2.85481e-010 -1.07183e-009 -1.36414e-009 7.73091 5.47488 0.417314 -2.85486e-010 -1.07183e-009 -1.36414e-009 2.90554 0.965183 0.102902 -2.85495e-010 -1.07183e-009 -1.36415e-009 10.2786 0.731801 0.0259123 -2.85488e-010 -1.07182e-009 -1.36412e-009 2.22167 -0.733487 -0.20892 3.24784e-013 7.55051e-015 2.8334e-013 -57.5848 18.9074 -28.1927 27.1701 -26.9514 -62.1994 0.678381 -22.7084 3.37207 -1.15825e-009 7.51214e-010 4.61397e-010 -2.00331e-009 1.31797e-009 7.75232e-010 -1.15826e-009 7.51223e-010 4.61409e-010 -7.73091 5.47488 -0.417314 -1.15826e-009 7.51224e-010 4.614e-010 -2.90554 0.965183 -0.102902 -1.15826e-009 7.51224e-010 4.61396e-010 -10.2786 0.731801 -0.0259123 -1.15824e-009 7.51223e-010 4.614e-010 -2.22167 -0.733487 0.20892 -2.03217e-016 0 -3.88251e-019 173.058 -66.061 171.974 -1.82903 64.691 0.702761 -2.38176 18.9645 -173.181 2.03217e-016 0 3.88251e-019 141.35 -82.239 152.308 6.19553 69.8576 9.21067 177.178 5.30072 -174.894 
48.4673 23.3752 66.1202 121.629 -75.8485 120.712 -10.0312 34.5938 2.07404 1.89646 5.01025 -0.499522 -2.16485 16.1849 -1.70239 3.22723 -25.5938 -2.65915 -0 0 0 -0 0 0 3.92941e-013 -3.17687e-015 3.34058e-013 65.2446 10.5722 26.4088 -28.3989 -34.262 74.1292 -0.0850402 -8.29015 -1.17339 -1.58035e-010 -8.69484e-010 -1.32761e-009 -2.59365e-010 -1.49655e-009 -2.29971e-009 -1.58034e-010 -8.69481e-010 -1.32762e-009 7.73091 5.47488 0.417314 -1.58038e-010 -8.69481e-010 -1.32761e-009 2.90554 0.965183 0.102902 -1.5805e-010 -8.69481e-010 -1.32763e-009 10.2786 0.731801 0.0259123 -1.58039e-010 -8.69476e-010 -1.3276e-009 2.22167 -0.733487 -0.20892 3.92632e-013 -3.18599e-015 3.33859e-013 -57.1824 16.8383 -30.3995 27.6359 -28.7609 -65.2747 0.614477 -21.6971 3.20564 -1.0824e-009 9.78641e-010 1.76473e-010 -1.86535e-009 1.69367e-009 2.83247e-010 -1.08241e-009 9.78649e-010 1.76486e-010 -7.73091 5.47488 -0.417314 -1.0824e-009 9.7865e-010 1.76476e-010 -2.90554 0.965183 -0.102902 -1.08241e-009 9.7865e-010 1.76473e-010 -10.2786 0.731801 -0.0259123 -1.08239e-009 9.78649e-010 1.76479e-010 -2.22167 -0.733487 0.20892 -2.03217e-016 0 -3.88251e-019 172.302 -64.1051 171.076 -2.11587 66.9867 0.941071 -2.22241 18.9963 -174.006 2.03217e-016 0 3.88251e-019 150.646 -79.9196 161.658 7.65892 71.2146 8.02001 177.057 6.16678 -174.501 
48.4272 23.728 65.8063 125.692 -74.9854 124.537 -10.5029 33.3628 2.43965 1.9773 4.72918 -0.367905 -2.17466 16.8277 -1.68361 3.11354 -24.7327 -2.68797 -0 0 0 -0 0 0 4.18607e-013 -4.67718e-014 3.54705e-013 65.1969 8.53351 28.7338 -28.4069 -35.4079 76.2098 -0.0417175 -6.6103 -0.932089 8.95703e-011 -1.10065e-009 -1.2416e-009 1.67366e-010 -1.89677e-009 -2.15135e-009 8.95715e-011 -1.10065e-009 -1.2416e-009 7.73091 5.47488 0.417314 8.95665e-011 -1.10065e-009 -1.2416e-009 2.90554 0.965183 0.102902 8.9558e-011 -1.10065e-009 -1.24161e-009 10.2786 0.731801 0.0259123 8.95667e-011 -1.10064e-009 -1.24159e-009 2.22167 -0.733487 -0.20892 4.18367e-013 -4.67826e-014 3.54513e-013 -56.9151 14.9765 -32.5644 27.9942 -30.5099 -68.1489 0.54926 -20.5873 3.02585 -9.01537e-010 1.00517e-009 -1.23535e-010 -1.54785e-009 1.73885e-009 -2.33177e-010 -9.01551e-010 1.00518e-009 -1.23525e-010 -7.73091 5.47488 -0.417314 -9.01547e-010 1.00518e-009 -1.23533e-010 -2.90554 0.965183 -0.102902 -9.01554e-010 1.00518e-009 -1.23537e-010 -10.2786 0.731801 -0.0259123 -9.01532e-010 1.00518e-009 -1.2353e-010 -2.22167 -0.733487 0.20892 -2.03217e-016 0 -3.88251e-019 171.298 -62.1431 169.923 -2.75094 69.3631 1.32212 -2.12568 20.4073 -173.498 2.03217e-016 0 3.88251e-019 155.587 -77.1931 166.564 12.2653 72.8248 8.33408 175.62 7.66197 -169.515 
48.2753 24.1502 65.5383 129.251 -74.0866 127.725 -11.0475 32.0362 2.86503 2.06218 4.19869 -0.206525 -2.17161 17.6599 -1.63818 2.90267 -23.5855 -2.70004 -0 0 0 -0 0 0 4.1554e-013 -1.12805e-013 3.5397e-013 65.2748 6.68316 31.0181 -28.3848 -36.4755 78.0286 -0.00387339 -4.26794 -0.599508 4.46462e-010 -1.45857e-009 -1.07676e-009 7.81956e-010 -2.51628e-009 -1.86693e-009 4.46465e-010 -1.45857e-009 -1.07676e-009 7.73091 5.47488 0.417314 4.46458e-010 -1.45857e-009 -1.07676e-009 2.90554 0.965183 0.102902 4.46456e-010 -1.45857e-009 -1.07677e-009 10.2786 0.731801 0.0259123 4.46459e-010 -1.45856e-009 -1.07676e-009 2.22167 -0.733487 -0.20892 4.15429e-013 -1.12816e-013 3.53793e-013 -56.7449 13.2688 -34.7459 28.2424 -32.2944 -70.9817 0.485537 -19.3981 2.83655 -6.05377e-010 9.68528e-010 -4.86176e-010 -1.03125e-009 1.67914e-009 -8.55902e-010 -6.05391e-010 9.68527e-010 -4.86171e-010 -7.73091 5.47488 -0.417314 -6.05387e-010 9.68525e-010 -4.86176e-010 -2.90554 0.965183 -0.102902 -6.05393e-010 9.68528e-010 -4.8618e-010 -10.2786 0.731801 -0.0259123 -6.0537e-010 9.68531e-010 -4.86175e-010 -2.22167 -0.733487 0.20892 -2.03217e-016 0 -3.88251e-019 170.205 -60.1826 168.656 -3.71306 71.8751 1.88915 -2.15867 22.7093 -172.094 2.03217e-016 0 3.88251e-019 158.314 -74.2072 169.179 18.7617 74.6681 9.66736 172.83 9.5731 -161.472 
48.102 24.7103 65.1896 132.638 -73.1285 130.634 -11.5949 30.8666 3.35882 2.11486 3.5646 -0.0364558 -2.12071 18.3552 -1.58735 2.6209 -22.3419 -2.71292 -0 0 0 -0 0 0 3.94965e-013 -1.70937e-013 3.40334e-013 65.4382 4.9032 33.2961 -28.3422 -37.5606 79.7712 0.00756998 -1.91947 -0.269098 7.97989e-010 -1.85072e-009 -8.97861e-010 1.38698e-009 -3.19487e-009 -1.55814e-009 7.97992e-010 -1.85072e-009 -8.97866e-010 7.73091 5.47488 0.417314 7.97984e-010 -1.85072e-009 -8.97864e-010 2.90554 0.965183 0.102902 7.97988e-010 -1.85072e-009 -8.97869e-010 10.2786 0.731801 0.0259123 7.97986e-010 -1.85072e-009 -8.97862e-010 2.22167 -0.733487 -0.20892 3.94989e-013 -1.70948e-013 3.40174e-013 -56.59 11.5127 -36.9606 28.384 -34.0716 -73.8156 0.4217 -18.1195 2.63607 -2.8971e-010 9.0386e-010 -8.04615e-010 -4.8217e-010 1.57209e-009 -1.4017e-009 -2.89725e-010 9.03853e-010 -8.04616e-010 -7.73091 5.47488 -0.417314 -2.89721e-010 9.0385e-010 -8.04618e-010 -2.90554 0.965183 -0.102902 -2.89725e-010 9.03854e-010 -8.04622e-010 -10.2786 0.731801 -0.0259123 -2.89703e-010 9.03859e-010 -8.04618e-010 -2.22167 -0.733487 0.20892 -2.03217e-016 0 -3.88251e-019 169.237 -58.2965 167.455 -4.53614 74.5186 2.58555 -1.77643 22.9025 -173.113 2.03217e-016 0 3.88251e-019 159.695 -71.2778 170.377 23.6793 76.6658 11.3957 171.502 8.4994 -155.724 
47.9807 25.1621 64.9532 136.089 -72.0697 133.527 -12.0845 30.1059 3.9338 2.09677 2.97273 0.12145 -1.98481 18.5869 -1.5526 2.29578 -21.1918 -2.74303 -0 0 0 -0 0 0 3.68109e-013 -1.90829e-013 3.2228e-013 65.6702 3.0886 35.6075 -28.2586 -38.7224 81.6615 -6.02966e-005 -0.221721 -0.031161 1.0295e-009 -2.18459e-009 -7.69666e-010 1.78502e-009 -3.77233e-009 -1.33669e-009 1.0295e-009 -2.18459e-009 -7.69672e-010 7.73091 5.47488 0.417314 1.02949e-009 -2.1846e-009 -7.69669e-010 2.90554 0.965183 0.102902 1.0295e-009 -2.1846e-009 -7.69671e-010 10.2786 0.731801 0.0259123 1.02949e-009 -2.18459e-009 -7.69669e-010 2.22167 -0.733487 -0.20892 3.68213e-013 -1.90838e-013 3.22131e-013 -56.4016 9.52978 -39.2356 28.4331 -35.7934 -76.6639 0.356553 -16.7411 2.42285 -5.03355e-011 8.4632e-010 -9.72019e-010 -6.72576e-011 1.47528e-009 -1.68734e-009 -5.03498e-011 8.46311e-010 -9.72022e-010 -7.73091 5.47488 -0.417314 -5.03456e-011 8.4631e-010 -9.72022e-010 -2.90554 0.965183 -0.102902 -5.0349e-011 8.4631e-010 -9.72027e-010 -10.2786 0.731801 -0.0259123 -5.03287e-011 8.46317e-010 -9.72025e-010 -2.22167 -0.733487 0.20892 -2.03217e-016 0 -3.88251e-019 168.558 -56.5623 166.456 -4.71523 77.2915 3.31996 -1.04235 17.798 -179.648 2.03217e-016 0 3.88251e-019 160.214 -68.6971 170.653 23.9737 78.7609 12.4875 174.978 1.56283 -157.487 
47.8013 25.9241 64.6048 139.743 -70.8788 136.51 -12.5306 29.8806 4.62711 1.9863 2.43315 0.261745 -1.67889 18.1033 -1.54499 1.81441 -20.0213 -2.82108 -0 0 0 -0 0 0 3.3426e-013 -1.46831e-013 2.96974e-013 66.0601 1.33532 37.9902 -28.0916 -39.9374 83.7912 -0.00688629 0.662873 0.0928659 1.1216e-009 -2.44927e-009 -7.09229e-010 1.94259e-009 -4.22865e-009 -1.23188e-009 1.1216e-009 -2.44927e-009 -7.09237e-010 7.73091 5.47488 0.417314 1.12159e-009 -2.44927e-009 -7.0923e-010 2.90554 0.965183 0.102902 1.1216e-009 -2.44927e-009 -7.09231e-010 10.2786 0.731801 0.0259123 1.12159e-009 -2.44927e-009 -7.0923e-010 2.22167 -0.733487 -0.20892 3.34356e-013 -1.46836e-013 2.96828e-013 -56.2186 7.36415 -41.6615 28.3703 -37.4521 -79.539 0.286432 -15.1548 2.18068 9.09289e-011 5.69756e-010 -8.79297e-010 1.74319e-010 9.98815e-010 -1.52433e-009 9.09165e-011 5.69747e-010 -8.793e-010 -7.73091 5.47488 -0.417314 9.09211e-011 5.69758e-010 -8.79299e-010 -2.90554 0.965183 -0.102902 9.09165e-011 5.69746e-010 -8.79305e-010 -10.2786 0.731801 -0.0259123 9.09341e-011 5.69752e-010 -8.79305e-010 -2.22167 -0.733487 0.20892 -2.03217e-016 0 -3.88251e-019 168.279 -54.9148 165.748 -5.04807 80.6932 3.51268 -3.72979 4.162 165.763 2.03217e-016 0 3.88251e-019 160.057 -66.5323 170.168 17.2938 81.4704 12.0844 -179.996 -15.775 -171.758 
47.6134 26.7266 64.281 143.398 -69.5753 139.382 -12.9756 30.0331 5.43016 1.80771 1.87772 0.395593 -1.24732 17.1335 -1.55163 1.20539 -18.7841 -2.92875 -0 0 0 -0 0 0 2.88666e-013 -6.09772e-014 2.61591e-013 66.5855 -0.320019 40.424 -27.8347 -41.178 86.0784 -0.00798491 1.08021 0.151565 1.13171e-009 -2.6895e-009 -6.82083e-010 1.95859e-009 -4.64171e-009 -1.18431e-009 1.13171e-009 -2.68951e-009 -6.82093e-010 7.73091 5.47488 0.417314 1.1317e-009 -2.68951e-009 -6.8208e-010 2.90554 0.965183 0.102902 1.13171e-009 -2.68951e-009 -6.82081e-010 10.2786 0.731801 0.0259123 1.1317e-009 -2.6895e-009 -6.82079e-010 2.22167 -0.733487 -0.20892 2.88701e-013 -6.09771e-014 2.61445e-013 -56.0983 5.1436 -44.2291 28.1797 -39.1185 -82.4902 0.219358 -13.4011 1.9175 1.83932e-010 1.3393e-010 -6.10295e-010 3.29678e-010 2.47066e-010 -1.05693e-009 1.83923e-010 1.33923e-010 -6.10296e-010 -7.73091 5.47488 -0.417314 1.83928e-010 1.33949e-010 -6.10295e-010 -2.90554 0.965183 -0.102902 1.83921e-010 1.33922e-010 -6.10301e-010 -10.2786 0.731801 -0.0259123 1.83935e-010 1.33925e-010 -6.10304e-010 -2.22167 -0.733487 0.20892 -2.03217e-016 0 -3.88251e-019 168.23 -53.345 165.187 -4.91454 84.5602 2.83815 -18.8563 -12.3533 144.241 2.03217e-016 0 3.88251e-019 159.49 -64.6373 169.177 7.39382 84.6461 9.35055 168.091 -39.0485 159.852 
47.4049 27.5118 64.0132 146.78 -68.1946 141.94 -13.4059 30.3897 6.28916 1.58916 1.33494 0.527175 -0.845853 16.0721 -1.55818 0.704041 -17.7713 -3.00896 -0 0 0 -0 0 0 2.36492e-013 2.55473e-014 2.24623e-013 67.0986 -2.04319 42.8791 -27.4925 -42.4718 88.5251 -0.00475914 1.13591 0.15956 1.06039e-009 -2.89628e-009 -6.75704e-010 1.83418e-009 -4.99812e-009 -1.17256e-009 1.0604e-009 -2.89629e-009 -6.75716e-010 7.73091 5.47488 0.417314 1.06039e-009 -2.8963e-009 -6.75697e-010 2.90554 0.965183 0.102902 1.0604e-009 -2.8963e-009 -6.75698e-010 10.2786 0.731801 0.0259123 1.06038e-009 -2.89629e-009 -6.75695e-010 2.22167 -0.733487 -0.20892 2.36468e-013 2.55527e-014 2.24475e-013 -56.0406 2.84307 -46.8381 27.8744 -40.8531 -85.5834 0.166226 -11.6923 1.66566 2.4038e-010 2.86225e-012 -3.4758e-010 4.21614e-010 1.90155e-011 -6.01062e-010 2.40374e-010 2.85905e-012 -3.47579e-010 -7.73091 5.47488 -0.417314 2.4038e-010 2.89951e-012 -3.47578e-010 -2.90554 0.965183 -0.102902 2.40371e-010 2.85671e-012 -3.47585e-010 -10.2786 0.731801 -0.0259123 2.4038e-010 2.85724e-012 -3.4759e-010 -2.22167 -0.733487 0.20892 -2.03217e-016 0 -3.88251e-019 168.138 -52.0141 164.56 -2.82998 87.8962 2.70645 -47.6345 -19.3076 119.125 2.03217e-016 0 3.88251e-019 158.793 -62.9745 167.996 4.55782 87.207 -0.907895 127.812 -47.0789 115.843 
